:SAMPLES-PER-SECOND 30
:FULLY-SPECIFIED
:DEGREES
111
root  2.81425 38.6475 -12.9445 -20.3139 -84.2703 18.9327
RightUpLeg  -0.436714 -18.1734 -29.5987
RightLeg  1.1722 -16.9573 -2.14341
RightFoot  36.0218 -9.90185 22.9045
RightToes  -5.28226e-011 1.30204e-014 -6.03759e-014
Spine  6.88942 2.22469 10.395
Spine1  1.81015 4.65603 -10.4463
HEad  -8.62765 0.551304 -6.66934
LeftShoulder1  -0.181358 -7.11548 11.6526
LeftArm  -9.02742 -6.03725 -2.27157
LeftForeArm  32.9061 -3.80823 -10.1255
LeftHand  -0.0686973 5.09 -2.63861
RightShoulder  0.0178406 -0.615171 -9.02231
RightArm  -21.3922 11.2138 -9.83941
RightForeArm  14.0385 15.5741 3.59116
RightHand  -0.0602079 -4.43525 -0.465554
LeftUpLeg  -1.80096 12.6699 25.4743
LeftLeg  6.5662 5.0926 5.4213
LeftFoot  25.1876 4.07645 -12.7488
LeftToes  -2.42178e-010 -1.66495e-011 -2.88221e-011
112
root  2.99088 38.8098 -10.5964 -45.1641 -85.965 44.1623
RightUpLeg  -2.48315 -18.3064 -29.6406
RightLeg  2.67652 -14.4017 -2.10255
RightFoot  33.4379 -9.04 22.2826
RightToes  -5.28226e-011 1.30204e-014 -6.03759e-014
Spine  6.19083 2.36413 8.29951
Spine1  1.50857 4.42437 -9.52039
HEad  -6.6377 3.00546 -5.65278
LeftShoulder1  -0.342537 -5.48217 14.0698
LeftArm  -9.52789 -6.80966 -3.87098
LeftForeArm  40.1048 9.29008 -12.4291
LeftHand  0.100353 4.42554 -14.1637
RightShoulder  -0.0174611 1.44369 -10.2532
RightArm  -30.6965 21.1138 -11.5738
RightForeArm  29.4902 -7.78244 8.81473
RightHand  -0.0971203 -6.75331 6.60172
LeftUpLeg  0.0849689 13.9953 24.2726
LeftLeg  5.24074 -6.18928 4.28357
LeftFoot  22.3223 5.21165 -17.691
LeftToes  -2.42178e-010 -1.66495e-011 -2.88221e-011
113
root  3.38809 38.5664 -8.26085 -63.9087 -84.8792 62.5964
RightUpLeg  -5.48074 -14.4811 -30.2991
RightLeg  12.4588 -15.1789 -5.50126
RightFoot  25.0512 -6.24801 19.336
RightToes  -5.28226e-011 1.30204e-014 -6.03759e-014
Spine  7.83743 2.33371 7.64886
Spine1  0.533123 4.6651 -11.1348
HEad  -7.05237 1.80849 -3.66595
LeftShoulder1  -0.363473 -3.76606 15.3248
LeftArm  -4.57957 -3.49129 -8.86652
LeftForeArm  43.4606 4.53328 -12.2796
LeftHand  0.0750356 3.96276 -7.84955
RightShoulder  0.0579932 2.08556 -8.48594
RightArm  -21.7543 17.8539 -10.3841
RightForeArm  31.0377 -1.72391 9.41076
RightHand  -0.036264 -5.01532 9.41968
LeftUpLeg  -1.0217 8.69779 21.4799
LeftLeg  10.3817 -10.3475 1.50114
LeftFoot  14.439 6.13895 -26.9794
LeftToes  -2.42178e-010 -1.66495e-011 -2.88221e-011
114
root  3.83634 38.0346 -6.01978 -68.3149 -84.1011 67.2021
RightUpLeg  -10.9744 -4.87845 -30.1034
RightLeg  29.0694 -18.595 -10.7778
RightFoot  16.7387 -3.58708 14.7744
RightToes  -5.28226e-011 1.30204e-014 -6.03759e-014
Spine  9.01587 2.9687 8.77595
Spine1  0.0960276 5.77591 -13.7134
HEad  -7.4676 -1.26448 -2.10873
LeftShoulder1  -0.108989 -3.12448 11.5875
LeftArm  6.67454 1.11142 -13.8025
LeftForeArm  35.0582 -14.2821 -10.0051
LeftHand  -0.0718219 5.55362 12.3102
RightShoulder  0.198058 0.999448 -4.49125
RightArm  -5.12317 7.57718 -7.34179
RightForeArm  23.2851 22.2426 7.29523
RightHand  -0.0457278 -3.84603 -3.47541
LeftUpLeg  -3.66739 -1.13616 18.7398
LeftLeg  17.1093 -7.95467 -1.45435
LeftFoot  3.13825 4.41891 -33.6923
LeftToes  -2.42178e-010 -1.66495e-011 -2.88221e-011
115
root  4.27251 37.4404 -3.95394 -82.733 -83.8711 81.6643
RightUpLeg  -18.7267 0.874631 -28.0574
RightLeg  48.2413 -12.0397 -14.1193
RightFoot  9.06126 -1.879 10.7039
RightToes  -5.28226e-011 1.30204e-014 -6.03759e-014
Spine  9.48084 3.76962 8.57866
Spine1  1.22001 6.67232 -14.1414
HEad  -6.70384 -2.13857 -1.92916
LeftShoulder1  0.382921 -2.96456 2.78863
LeftArm  10.8348 6.77515 -17.3277
LeftForeArm  29.5292 -33.452 -4.90147
LeftHand  -0.268751 4.23647 30.041
RightShoulder  0.347009 -0.110651 1.91565
RightArm  -8.92784 -0.132723 -4.84417
RightForeArm  27.9448 44.0589 8.55705
RightHand  -0.153684 -4.89497 -22.4869
LeftUpLeg  -5.75625 -6.91649 15.4301
LeftLeg  23.5374 -5.63047 -2.43797
LeftFoot  -8.6904 0.884671 -32.7438
LeftToes  -2.42178e-010 -1.66495e-011 -2.88221e-011
116
root  4.84197 36.7362 -2.12746 -104.497 -82.365 101.648
RightUpLeg  -26.4018 4.80046 -25.8797
RightLeg  68.3088 -4.67139 -13.6789
RightFoot  2.55625 -0.784909 6.698
RightToes  -5.28226e-011 1.30204e-014 -6.03759e-014
Spine  10.9542 3.75746 4.94347
Spine1  5.06984 6.35424 -12.2989
HEad  -8.24517 0.323227 -2.23923
LeftShoulder1  0.896379 -2.48435 -7.3862
LeftArm  -2.19912 12.9682 -21.6507
LeftForeArm  41.6117 -50.1729 -10.4682
LeftHand  -0.250881 4.53921 38.8954
RightShoulder  0.637571 0.238487 9.54679
RightArm  -14.6022 -4.0096 0.699785
RightForeArm  36.3599 60.5639 16.8749
RightHand  -0.958688 -2.114 -34.5753
LeftUpLeg  -6.08045 -7.32046 10.5297
LeftLeg  29.9416 -4.12671 -2.20781
LeftFoot  -17.7131 -1.48493 -27.8024
LeftToes  -2.42178e-010 -1.66495e-011 -2.88221e-011
117
root  5.60764 36.0604 -0.567122 -112.359 -80.0069 106.381
RightUpLeg  -32.5744 5.03374 -22.9828
RightLeg  86.7244 0.0192601 -13.7914
RightFoot  0.338715 -0.563992 5.56066
RightToes  -5.28226e-011 1.30204e-014 -6.03759e-014
Spine  13.3143 2.85822 -0.075854
Spine1  11.519 5.11527 -10.5129
HEad  -15.024 3.48294 -1.18424
LeftShoulder1  1.4442 -2.86156 -15.7506
LeftArm  -9.71668 15.5846 -29.7003
LeftForeArm  50.3686 -65.0499 -18.9749
LeftHand  0.811983 7.39112 43.8813
RightShoulder  1.0805 1.33705 15.6832
RightArm  -17.0949 -7.86325 12.8454
RightForeArm  49.3408 72.1341 29.7067
RightHand  -1.54361 -0.543352 -36.0001
LeftUpLeg  -5.6714 -4.96622 5.72054
LeftLeg  35.2351 -4.20427 -2.82446
LeftFoot  -22.864 -2.46197 -25.2381
LeftToes  -2.42178e-010 -1.66495e-011 -2.88221e-011
118
root  6.3556 35.696 0.673983 -107.714 -79.0202 99.7219
RightUpLeg  -38.4543 1.52617 -17.5465
RightLeg  100.79 3.25356 -12.937
RightFoot  0.849061 -0.821913 7.74436
RightToes  -5.28226e-011 1.30204e-014 -6.03759e-014
Spine  14.9931 1.47297 -3.28957
Spine1  17.1737 3.71951 -10.1309
HEad  -23.6249 5.43339 1.37098
LeftShoulder1  2.22147 -4.79514 -20.394
LeftArm  -13.301 11.9104 -39.8766
LeftForeArm  63.0664 -74.0862 -31.9348
LeftHand  1.25613 8.31934 46.069
RightShoulder  1.37538 1.92317 18.9554
RightArm  -14.8358 -12.642 30.2956
RightForeArm  59.1522 75.1089 36.6055
RightHand  -0.778669 -2.68198 -32.8055
LeftUpLeg  -6.72113 -2.65769 3.10226
LeftLeg  39.0428 -6.23537 -4.99808
LeftFoot  -25.1208 -2.96837 -25.4191
LeftToes  -2.42178e-010 -1.66495e-011 -2.88221e-011
119
root  6.79916 35.7816 1.60615 -99.6251 -79.3089 91.5089
RightUpLeg  -44.8086 -2.56895 -9.17444
RightLeg  109.855 4.00273 -8.97732
RightFoot  0.455702 -0.907484 8.77995
RightToes  -5.28226e-011 1.30204e-014 -6.03759e-014
Spine  15.6223 -0.188095 -4.35473
Spine1  18.8366 2.12729 -10.4372
HEad  -28.5704 6.88435 2.61921
LeftShoulder1  2.70925 -6.38203 -21.0639
LeftArm  -11.7261 3.1864 -48.8346
LeftForeArm  86.8533 -79.3888 -54.6827
LeftHand  1.12684 7.93094 47.3635
RightShoulder  1.5138 2.17331 20.3428
RightArm  -8.46494 -16.7307 45.554
RightForeArm  48.6636 67.0683 22.5707
RightHand  -0.411798 -3.85225 -30.732
LeftUpLeg  -8.52748 -1.7058 2.25335
LeftLeg  40.6287 -8.22783 -7.07727
LeftFoot  -25.09 -3.00034 -25.7276
LeftToes  -2.42178e-010 -1.66495e-011 -2.88221e-011
120
root  6.90268 36.3588 2.34079 -94.0547 -79.6856 86.1084
RightUpLeg  -49.7587 -4.45915 -1.01192
RightLeg  113.478 3.14339 -5.6844
RightFoot  -0.942255 -0.740518 8.069
RightToes  -5.28226e-011 1.30204e-014 -6.03759e-014
Spine  16.4535 -1.74024 -4.95457
Spine1  16.6845 0.0902931 -10.0004
HEad  -28.6752 8.4171 0.223917
LeftShoulder1  2.52493 -6.37558 -19.0374
LeftArm  -6.58429 -8.87875 -53.5976
LeftForeArm  146.158 -80.7629 -110.467
LeftHand  0.908661 7.35884 48.6288
RightShoulder  1.70857 2.76621 20.9665
RightArm  2.93789 -19.1285 53.2654
RightForeArm  36.723 51.1134 10.9169
RightHand  -0.507733 -3.27498 -27.4143
LeftUpLeg  -8.08138 -1.17688 1.49131
LeftLeg  38.2772 -9.2293 -7.35238
LeftFoot  -22.3994 -2.35604 -25.2878
LeftToes  -2.42178e-010 -1.66495e-011 -2.88221e-011
121
root  6.91084 37.4775 2.90384 -87.2378 -79.7276 78.9499
RightUpLeg  -51.5112 -5.60736 3.50496
RightLeg  111.424 3.01116 -6.11213
RightFoot  -1.03794 -0.784256 8.57401
RightToes  -5.28226e-011 1.30204e-014 -6.03759e-014
Spine  18.3422 -3.12314 -5.55037
Spine1  12.4349 -2.30331 -7.93453
HEad  -26.304 9.59965 -4.02194
LeftShoulder1  1.87215 -4.97341 -15.2387
LeftArm  -5.09459 -23.8085 -52.588
LeftForeArm  -174.705 -74.6105 -148.277
LeftHand  1.08562 7.8741 46.6265
RightShoulder  1.99233 3.718 21.3128
RightArm  21.0646 -21.6187 54.7233
RightForeArm  31.5557 37.7899 6.58345
RightHand  -0.537716 -2.77306 -23.583
LeftUpLeg  -4.92429 -0.565023 0.613483
LeftLeg  31.415 -10.3818 -6.40842
LeftFoot  -16.0799 -0.966233 -25.3632
LeftToes  -2.42178e-010 -1.66495e-011 -2.88221e-011
122
root  6.9799 38.8882 3.26172 -72.5683 -79.2874 64.543
RightUpLeg  -50.7025 -7.6601 4.68106
RightLeg  104.406 2.6222 -7.64168
RightFoot  1.76496 -1.08735 9.56842
RightToes  -5.28226e-011 1.30204e-014 -6.03759e-014
Spine  20.2834 -4.54306 -5.59603
Spine1  7.05062 -4.71902 -4.8673
HEad  -22.8777 9.9796 -6.5539
LeftShoulder1  0.980643 -2.27515 -9.42736
LeftArm  -13.1872 -40.8795 -46.6286
LeftForeArm  -173.628 -72.7234 -151.632
LeftHand  1.76265 9.40017 47.151
RightShoulder  2.33001 4.73108 22.0523
RightArm  38.0978 -27.4937 52.0382
RightForeArm  33.1849 34.6658 5.80342
RightHand  -0.466598 -2.71119 -19.98
LeftUpLeg  -2.24534 1.05744 0.624503
LeftLeg  22.9264 -14.003 -5.8844
LeftFoot  -6.44909 1.24309 -27.2209
LeftToes  -2.42178e-010 -1.66495e-011 -2.88221e-011
123
root  6.98032 40.128 3.51384 -56.366 -78.2333 49.7638
RightUpLeg  -47.8611 -9.07058 4.55126
RightLeg  93.8723 1.08546 -7.05634
RightFoot  7.64405 -1.50444 9.32991
RightToes  -5.28226e-011 1.30204e-014 -6.03759e-014
Spine  21.0022 -5.62128 -5.57897
Spine1  1.13637 -6.53386 -1.3898
HEad  -18.4265 9.90774 -7.0524
LeftShoulder1  0.219514 1.21827 -1.01145
LeftArm  -29.323 -55.2362 -37.4449
LeftForeArm  164.595 -78.5199 -130.876
LeftHand  1.82081 9.54419 47.4355
RightShoulder  2.66561 5.66745 22.8791
RightArm  45.231 -36.5133 46.131
RightForeArm  38.7126 39.2805 6.75602
RightHand  -0.28794 -2.67936 -10.9619
LeftUpLeg  -2.04317 4.54633 1.33573
LeftLeg  16.5968 -19.4952 -5.56909
LeftFoot  3.89978 4.15761 -30.5282
LeftToes  -2.42178e-010 -1.66495e-011 -2.88221e-011
124
root  6.83189 40.8757 3.76917 -49.1525 -77.5684 43.9579
RightUpLeg  -42.7797 -7.80803 3.98774
RightLeg  81.174 -0.474837 -6.02502
RightFoot  16.5341 -2.22661 9.36261
RightToes  -5.28226e-011 1.30204e-014 -6.03759e-014
Spine  20.3974 -5.59063 -7.22212
Spine1  -3.11186 -7.28665 2.91696
HEad  -13.7552 10.2058 -7.96624
LeftShoulder1  -0.00751079 4.37953 9.1077
LeftArm  -54.0733 -62.1822 -20.5191
LeftForeArm  84.6009 -78.8323 -54.0847
LeftHand  2.01245 10.8172 40.2553
RightShoulder  2.83181 6.47504 22.1543
RightArm  49.7226 -44.6897 38.5317
RightForeArm  40.295 46.5639 8.97042
RightHand  0.0126372 -3.22126 1.85907
LeftUpLeg  -3.12016 5.48321 1.55245
LeftLeg  13.7126 -20.1897 -4.71733
LeftFoot  11.5721 6.7512 -32.9203
LeftToes  -2.42178e-010 -1.66495e-011 -2.88221e-011
125
root  6.63713 41.2042 4.03551 -51.1206 -77.8 46.5642
RightUpLeg  -36.0315 -4.2524 2.9294
RightLeg  67.0984 -2.93995 -8.02371
RightFoot  27.7371 -3.57321 10.5853
RightToes  -5.28226e-011 1.30204e-014 -6.03759e-014
Spine  18.7259 -4.8558 -10.8294
Spine1  -3.82727 -7.59684 7.86194
HEad  -10.4582 11.4119 -9.77026
LeftShoulder1  0.292297 7.18894 18.6986
LeftArm  -80.9825 -60.766 1.31824
LeftForeArm  45.9437 -60.6539 -15.9618
LeftHand  1.47665 10.2817 40.1549
RightShoulder  2.72965 7.0998 19.3119
RightArm  57.5247 -48.88 30.4811
RightForeArm  40.7129 54.1501 12.194
RightHand  0.119939 -3.87447 10.0467
LeftUpLeg  -3.75975 4.36488 0.75941
LeftLeg  13.002 -17.9496 -3.19337
LeftFoot  15.54 7.66323 -31.7732
LeftToes  -2.42178e-010 -1.66495e-011 -2.88221e-011
